<svg width="494" height="496" viewBox="0 0 494 496" fill="none" xmlns="http://www.w3.org/2000/svg">
<path d="M358 334L468 444L442 470L332 360M281 279C309.341 250.13 325.094 211.211 324.814 170.757C324.533 130.302 308.242 91.6051 279.504 63.1312C250.765 34.6573 211.919 18.7243 171.464 18.8178C131.008 18.9113 92.2365 35.0236 63.63 63.63C35.0236 92.2365 18.9113 131.008 18.8178 171.464C18.7243 211.919 34.6573 250.765 63.1312 279.504C91.6051 308.242 130.302 324.533 170.757 324.814C211.211 325.094 250.13 309.341 279 281L449 451L281 279Z" stroke="#DADADA" stroke-width="36" stroke-linecap="round"/>
</svg>
